<?xml version="1.0" standalone="no"?>
<!DOCTYPE svg PUBLIC "-//W3C//DTD SVG 20010904//EN"
 "http://www.w3.org/TR/2001/REC-SVG-20010904/DTD/svg10.dtd">
<svg version="1.0" xmlns="http://www.w3.org/2000/svg"
 width="700.000000pt" height="700.000000pt" viewBox="0 0 700.000000 700.000000"
 preserveAspectRatio="xMidYMid meet">
<metadata>
Created by potrace 1.14, written by Peter Selinger 2001-2017
</metadata>
<g transform="translate(0.000000,700.000000) scale(0.100000,-0.100000)"
fill="#000000" stroke="none">
<path d="M2769 6984 c-122 -78 -27 -265 105 -210 78 33 94 141 29 198 -29 26
-102 32 -134 12z"/>
<path d="M4109 6977 c-47 -31 -66 -91 -45 -140 36 -86 145 -97 205 -21 41 52
19 138 -43 168 -46 22 -77 20 -117 -7z"/>
<path d="M3442 6789 c-72 -28 -105 -125 -68 -196 52 -101 200 -102 251 -2 61
117 -60 248 -183 198z"/>
<path d="M2885 6580 c-127 -28 -201 -157 -160 -279 49 -148 231 -197 346 -94
50 45 71 92 72 163 0 89 -46 161 -127 195 -45 19 -89 24 -131 15z"/>
<path d="M4025 6580 c-128 -28 -203 -169 -156 -293 19 -49 79 -105 133 -123
118 -39 236 22 272 140 34 111 -15 218 -118 261 -45 19 -90 24 -131 15z"/>
<path d="M2219 6539 c-62 -36 -87 -121 -54 -186 19 -39 42 -58 85 -72 89 -28
181 38 182 131 2 115 -115 184 -213 127z"/>
<path d="M4640 6542 c-46 -24 -79 -88 -73 -139 8 -72 68 -127 135 -127 56 0
97 21 126 64 20 29 23 44 20 88 -9 105 -114 163 -208 114z"/>
<path d="M1539 6477 c-37 -14 -72 -71 -71 -115 3 -70 58 -116 132 -108 62 6
100 48 100 112 0 39 -5 51 -34 80 -19 19 -42 34 -52 35 -11 0 -26 2 -34 3 -8
1 -27 -2 -41 -7z"/>
<path d="M5375 6478 c-64 -20 -98 -117 -61 -173 42 -64 138 -72 189 -15 80 89
-11 223 -128 188z"/>
<path d="M3422 6274 c-280 -72 -312 -462 -47 -579 155 -69 331 -3 406 152 31
64 33 188 5 248 -70 147 -213 218 -364 179z"/>
<path d="M1800 6134 c-88 -38 -140 -112 -140 -201 1 -146 138 -249 277 -208
51 15 88 44 122 93 22 32 26 48 26 112 0 67 -3 80 -30 120 -55 81 -171 119
-255 84z"/>
<path d="M5057 6136 c-91 -34 -147 -112 -147 -206 0 -119 107 -221 225 -215
181 10 272 234 147 364 -57 60 -152 84 -225 57z"/>
<path d="M1215 5865 c-111 -47 -120 -200 -15 -256 66 -36 144 -14 187 50 74
110 -50 259 -172 206z"/>
<path d="M5673 5860 c-143 -64 -86 -280 69 -267 61 5 95 29 118 81 55 122 -65
241 -187 186z"/>
<path d="M3020 5693 c-63 -21 -121 -71 -154 -134 -40 -72 -43 -180 -8 -252 87
-175 307 -221 450 -92 232 209 9 581 -288 478z"/>
<path d="M3780 5693 c-63 -23 -142 -105 -164 -170 -66 -200 87 -399 293 -380
143 13 247 118 258 261 10 117 -54 231 -156 278 -60 29 -169 34 -231 11z"/>
<path d="M1675 5551 c-87 -22 -159 -82 -203 -165 -22 -43 -26 -64 -26 -136 -1
-73 3 -92 26 -135 120 -227 430 -229 553 -4 39 72 42 187 7 264 -49 106 -149
176 -262 181 -36 2 -78 0 -95 -5z"/>
<path d="M5170 5551 c-142 -46 -232 -171 -226 -311 12 -262 314 -391 510 -218
26 22 59 64 74 92 23 44 27 62 26 136 0 67 -5 95 -23 131 -50 104 -151 170
-266 175 -38 2 -81 0 -95 -5z"/>
<path d="M605 5528 c-42 -12 -63 -30 -79 -69 -16 -39 -13 -70 11 -110 34 -57
132 -65 182 -15 22 22 26 36 26 81 0 45 -4 59 -25 80 -32 31 -76 44 -115 33z"/>
<path d="M6333 5528 c-19 -5 -44 -23 -59 -43 -64 -85 12 -207 114 -184 70 15
114 92 88 153 -25 60 -83 90 -143 74z"/>
<path d="M2317 5405 c-243 -93 -257 -424 -23 -531 141 -65 315 1 379 144 28
63 28 169 0 232 -25 57 -85 116 -143 143 -57 26 -162 32 -213 12z"/>
<path d="M4509 5406 c-59 -21 -107 -55 -144 -103 -142 -186 -9 -454 225 -455
115 -1 204 54 258 157 21 41 26 63 26 125 -1 120 -56 210 -160 261 -54 26
-153 33 -205 15z"/>
<path d="M998 5330 c-45 -13 -98 -61 -123 -110 -47 -93 -15 -212 73 -274 34
-24 56 -31 106 -34 56 -4 71 -1 115 23 159 87 151 311 -13 386 -42 19 -111 23
-158 9z"/>
<path d="M5841 5320 c-96 -45 -142 -139 -119 -243 42 -192 311 -228 400 -54
32 65 33 136 0 198 -39 74 -93 110 -174 115 -49 4 -73 0 -107 -16z"/>
<path d="M2837 5116 c-117 -43 -162 -187 -90 -290 41 -58 85 -81 160 -81 52 0
68 5 105 30 25 18 52 49 66 75 79 157 -75 326 -241 266z"/>
<path d="M4027 5116 c-150 -55 -170 -252 -35 -342 42 -28 54 -32 108 -29 77 3
133 39 166 105 78 155 -77 326 -239 266z"/>
<path d="M1777 4863 c-70 -26 -131 -79 -163 -142 -37 -72 -40 -183 -6 -248 67
-129 193 -189 332 -158 35 8 101 45 130 74 108 106 111 282 7 398 -72 80 -201
112 -300 76z"/>
<path d="M5055 4863 c-84 -25 -143 -77 -182 -160 -65 -140 1 -311 147 -376 69
-32 170 -29 239 6 105 54 166 158 159 272 -11 184 -190 311 -363 258z"/>
<path d="M512 4830 c-125 -77 -74 -262 73 -262 83 0 138 56 138 142 1 110
-118 177 -211 120z"/>
<path d="M6345 4832 c-46 -29 -68 -69 -68 -124 -1 -79 57 -139 135 -140 139
-3 198 154 94 251 -36 33 -118 40 -161 13z"/>
<path d="M70 4283 c-19 -8 -32 -21 -54 -55 -24 -37 -15 -106 18 -137 73 -69
193 -27 201 70 7 87 -84 153 -165 122z"/>
<path d="M543 4265 c-60 -28 -89 -59 -112 -121 -67 -182 120 -351 296 -267 47
22 100 85 113 135 48 177 -132 331 -297 253z"/>
<path d="M1977 4266 c-119 -63 -141 -228 -42 -315 102 -89 257 -54 309 69 20
49 14 130 -14 175 -52 84 -167 116 -253 71z"/>
<path d="M4851 4268 c-150 -73 -141 -294 14 -354 92 -35 194 6 243 96 20 37
23 54 18 99 -13 138 -152 218 -275 159z"/>
<path d="M6294 4274 c-104 -37 -164 -153 -134 -264 17 -64 91 -134 157 -148
62 -14 107 -7 160 24 66 38 100 94 107 177 4 40 -26 122 -56 154 -56 60 -155
84 -234 57z"/>
<path d="M6804 4257 c-77 -70 -38 -189 67 -201 94 -10 161 100 110 178 -43 65
-120 75 -177 23z"/>
<path d="M1455 4144 c-264 -126 -194 -519 97 -542 92 -7 158 18 223 83 139
139 103 366 -73 456 -68 35 -178 36 -247 3z"/>
<path d="M5337 4154 c-247 -88 -264 -423 -28 -532 81 -37 167 -35 250 7 90 47
142 128 149 237 4 62 1 80 -21 128 -49 106 -139 167 -252 172 -33 1 -77 -4
-98 -12z"/>
<path d="M938 3797 c-96 -28 -172 -101 -206 -200 -70 -209 101 -425 321 -403
260 25 374 345 187 527 -77 75 -198 105 -302 76z"/>
<path d="M5880 3793 c-222 -75 -286 -354 -117 -515 203 -193 536 -38 521 242
-11 196 -217 336 -404 273z"/>
<path d="M315 3640 c-47 -10 -81 -37 -100 -79 -41 -92 12 -189 112 -204 39 -6
108 26 136 64 23 32 26 104 7 143 -28 55 -97 89 -155 76z"/>
<path d="M6614 3634 c-47 -16 -94 -65 -95 -99 -1 -14 -2 -31 -3 -37 -3 -21 15
-71 33 -92 74 -85 226 -49 247 60 21 113 -78 204 -182 168z"/>
<path d="M1494 3392 c-120 -34 -204 -143 -204 -266 0 -78 15 -124 59 -182 77
-102 231 -141 342 -86 138 68 199 215 151 362 -21 61 -112 151 -173 169 -62
19 -117 20 -175 3z"/>
<path d="M5350 3393 c-128 -46 -198 -133 -208 -258 -6 -88 18 -156 77 -215 67
-67 110 -85 206 -85 100 0 155 24 214 92 70 82 89 186 54 289 -24 70 -103 147
-173 168 -52 16 -139 20 -170 9z"/>
<path d="M585 3140 c-100 -22 -168 -107 -168 -210 0 -128 103 -224 231 -215
177 12 264 224 146 355 -56 62 -132 87 -209 70z"/>
<path d="M6306 3137 c-56 -14 -131 -90 -146 -147 -39 -146 73 -285 221 -275
56 4 87 16 128 50 87 74 99 205 26 301 -48 63 -144 93 -229 71z"/>
<path d="M1997 3085 c-50 -17 -82 -47 -108 -102 -57 -118 30 -261 164 -269
176 -10 273 203 148 327 -55 55 -129 71 -204 44z"/>
<path d="M4855 3081 c-140 -65 -152 -253 -22 -339 58 -38 146 -38 204 0 161
106 95 349 -97 356 -27 1 -61 -5 -85 -17z"/>
<path d="M62 2930 c-34 -21 -62 -67 -62 -100 0 -12 7 -36 15 -54 64 -134 268
-38 211 98 -27 64 -107 91 -164 56z"/>
<path d="M6841 2937 c-77 -27 -102 -128 -46 -187 99 -103 259 16 185 137 -30
50 -83 69 -139 50z"/>
<path d="M1795 2688 c-47 -10 -120 -58 -155 -101 -13 -17 -32 -53 -42 -81 -36
-104 -16 -203 58 -285 139 -155 383 -116 471 76 67 146 -9 326 -162 383 -41
15 -121 19 -170 8z"/>
<path d="M5075 2688 c-108 -22 -186 -96 -218 -204 -36 -127 21 -261 141 -330
65 -37 185 -40 253 -6 59 29 112 82 141 141 33 67 31 177 -5 247 -58 113 -190
178 -312 152z"/>
<path d="M540 2428 c-80 -22 -124 -123 -86 -196 26 -49 62 -75 114 -80 90 -8
154 49 155 139 2 97 -87 163 -183 137z"/>
<path d="M6382 2430 c-65 -15 -114 -85 -106 -153 15 -135 197 -175 263 -57 62
111 -33 238 -157 210z"/>
<path d="M2847 2250 c-78 -23 -137 -108 -133 -190 9 -202 284 -259 367 -75 69
152 -73 313 -234 265z"/>
<path d="M4015 2241 c-120 -55 -151 -206 -64 -306 111 -127 326 -50 335 119 7
144 -141 246 -271 187z"/>
<path d="M2351 2149 c-85 -16 -173 -87 -207 -167 -9 -20 -17 -66 -19 -102 -6
-115 57 -220 162 -271 66 -31 180 -32 239 -1 110 57 158 133 168 265 3 33 -24
118 -47 152 -68 98 -180 145 -296 124z"/>
<path d="M4543 2149 c-141 -25 -238 -141 -237 -284 1 -82 25 -141 81 -199 50
-51 102 -76 177 -83 82 -7 149 14 211 69 125 110 134 295 19 413 -28 29 -134
93 -134 82 0 -3 -17 -1 -37 2 -21 4 -57 4 -80 0z"/>
<path d="M1014 2082 c-65 -19 -99 -44 -130 -98 -109 -186 89 -395 283 -299 89
45 133 139 112 237 -27 120 -149 194 -265 160z"/>
<path d="M5830 2064 c-156 -87 -150 -311 11 -384 187 -85 374 113 281 297 -54
104 -189 145 -292 87z"/>
<path d="M1635 2035 c-165 -67 -241 -266 -162 -421 57 -110 145 -166 267 -170
64 -2 84 1 135 25 195 89 242 335 96 494 -82 89 -221 118 -336 72z"/>
<path d="M5165 2046 c-64 -20 -99 -42 -139 -87 -59 -64 -81 -121 -81 -209 0
-123 59 -219 170 -278 43 -23 62 -27 135 -26 72 0 93 4 135 26 63 33 114 84
145 145 20 39 25 63 25 133 0 73 -4 92 -27 136 -32 61 -94 119 -157 147 -55
24 -149 30 -206 13z"/>
<path d="M3031 1849 c-153 -45 -238 -217 -184 -375 22 -66 101 -145 167 -167
189 -65 386 70 386 263 0 165 -128 292 -289 289 -25 0 -61 -5 -80 -10z"/>
<path d="M3783 1844 c-61 -22 -136 -94 -162 -154 -95 -221 103 -453 335 -391
170 46 259 239 183 397 -27 57 -83 112 -140 139 -58 27 -155 31 -216 9z"/>
<path d="M589 1691 c-93 -47 -97 -165 -8 -209 79 -39 158 6 166 95 4 42 1 52
-24 81 -36 43 -90 56 -134 33z"/>
<path d="M6334 1699 c-45 -12 -76 -51 -81 -101 -10 -105 95 -166 182 -106 30
20 45 48 50 93 2 21 -17 64 -39 84 -30 28 -74 40 -112 30z"/>
<path d="M1205 1394 c-101 -52 -108 -178 -14 -245 69 -50 178 -16 208 64 46
122 -81 240 -194 181z"/>
<path d="M5665 1391 c-56 -34 -70 -58 -70 -120 0 -98 59 -151 160 -143 34 3
70 26 98 64 25 33 26 101 4 145 -35 66 -129 93 -192 54z"/>
<path d="M3434 1325 c-64 -15 -100 -35 -149 -82 -65 -61 -90 -123 -90 -218 0
-95 22 -151 83 -214 161 -166 436 -105 514 116 49 140 -18 304 -152 373 -57
29 -143 39 -206 25z"/>
<path d="M1830 1283 c-113 -33 -179 -127 -167 -239 23 -225 343 -260 415 -45
36 106 -14 221 -117 267 -35 16 -104 24 -131 17z"/>
<path d="M5067 1275 c-139 -36 -202 -205 -121 -326 76 -112 231 -129 327 -35
132 128 58 348 -125 370 -18 2 -54 -2 -81 -9z"/>
<path d="M2873 840 c-113 -26 -183 -151 -152 -267 23 -84 110 -152 202 -158
41 -2 123 28 154 57 84 78 89 214 12 301 -56 65 -130 88 -216 67z"/>
<path d="M4015 841 c-47 -12 -71 -28 -109 -72 -101 -119 -46 -298 106 -344
176 -52 327 125 254 299 -16 37 -59 82 -99 102 -34 18 -111 26 -152 15z"/>
<path d="M1534 741 c-36 -16 -64 -60 -64 -103 0 -117 130 -165 205 -76 59 70
16 176 -75 184 -25 2 -55 0 -66 -5z"/>
<path d="M5364 741 c-55 -24 -81 -104 -53 -165 15 -32 82 -66 117 -60 67 11
115 79 102 141 -12 52 -49 84 -101 89 -24 2 -54 0 -65 -5z"/>
<path d="M2231 709 c-134 -60 -87 -269 60 -269 95 0 160 87 137 179 -11 43
-64 100 -96 102 -9 1 -27 3 -39 4 -12 1 -40 -6 -62 -16z"/>
<path d="M4655 715 c-112 -48 -119 -208 -12 -259 64 -30 125 -17 176 38 31 33
40 110 17 154 -33 63 -117 95 -181 67z"/>
<path d="M3435 465 c-148 -75 -67 -292 98 -261 75 14 127 105 102 179 -16 48
-31 64 -75 87 -45 23 -72 22 -125 -5z"/>
<path d="M2785 230 c-35 -14 -66 -57 -72 -98 -19 -142 190 -180 227 -41 19 70
-29 137 -102 144 -18 1 -42 -1 -53 -5z"/>
<path d="M4125 226 c-85 -37 -93 -157 -13 -206 39 -24 69 -25 112 -5 134 64
37 271 -99 211z"/>
</g>
</svg>
